<svg width="23" height="15" viewBox="0 0 23 15" fill="none" xmlns="http://www.w3.org/2000/svg">
<path d="M0.701125 14.7781C0.502008 14.7781 0.33561 14.7103 0.201931 14.5748C0.0682516 14.4392 0.000944425 14.2724 9.60431e-06 14.0742C-0.000925216 13.876 0.0663819 13.7096 0.201931 13.575C0.33748 13.4404 0.503878 13.3735 0.701125 13.3745H21.7346C21.9337 13.3745 22.1001 13.4418 22.2338 13.5764C22.3684 13.711 22.4357 13.8779 22.4357 14.077C22.4357 14.2761 22.3684 14.4425 22.2338 14.5762C22.0992 14.7099 21.9328 14.7767 21.7346 14.7767L0.701125 14.7781ZM0.701125 8.08947C0.502008 8.08947 0.33561 8.02216 0.201931 7.88755C0.0682516 7.75293 0.000944425 7.58607 9.60431e-06 7.38695C-0.000925216 7.18783 0.0663819 7.02143 0.201931 6.88776C0.33748 6.75408 0.503878 6.68724 0.701125 6.68724H21.7346C21.9337 6.68724 22.1001 6.75454 22.2338 6.88916C22.3675 7.02377 22.4348 7.19064 22.4357 7.38975C22.4366 7.58887 22.3693 7.75527 22.2338 7.88895C22.0982 8.02263 21.9318 8.08947 21.7346 8.08947H0.701125ZM0.701125 1.40083C0.502008 1.40083 0.33561 1.33399 0.201931 1.20031C0.0673167 1.0657 9.60431e-06 0.89883 9.60431e-06 0.699713C9.60431e-06 0.500596 0.0673167 0.334198 0.201931 0.200519C0.336545 0.0668398 0.502943 0 0.701125 0H21.7346C21.9337 0 22.1001 0.0673071 22.2338 0.201921C22.3675 0.336535 22.4348 0.502466 22.4357 0.699713C22.4366 0.89696 22.3693 1.06336 22.2338 1.19891C22.0982 1.33446 21.9318 1.40176 21.7346 1.40083H0.701125Z" fill="#004B62"/>
</svg>
