<svg width="32" height="32" viewBox="0 0 32 32" fill="none" xmlns="http://www.w3.org/2000/svg">
<path d="M15.8334 0C24.5781 0 31.6667 7.08858 31.6667 15.8333C31.6667 24.5781 24.5781 31.6667 15.8334 31.6667C13.0352 31.6715 10.2863 30.931 7.86919 29.5213L0.0063578 31.6667L2.14702 23.8007C0.736209 21.3828 -0.00487924 18.6327 2.41754e-05 15.8333C2.41754e-05 7.08858 7.08861 0 15.8334 0ZM10.4374 8.39167L10.1207 8.40433C9.91595 8.41844 9.71591 8.47222 9.53169 8.56267C9.36002 8.66006 9.20325 8.78164 9.06619 8.92367C8.87619 9.10258 8.76852 9.25775 8.65294 9.40817C8.0673 10.1696 7.75198 11.1044 7.75677 12.065C7.75994 12.8408 7.96261 13.5961 8.27927 14.3022C8.92686 15.7304 9.99244 17.2425 11.3984 18.6437C11.7373 18.981 12.0698 19.3198 12.4276 19.6349C14.1747 21.173 16.2566 22.2822 18.5076 22.8744L19.4069 23.0122C19.6999 23.028 19.9928 23.0058 20.2873 22.9916C20.7483 22.9673 21.1985 22.8424 21.6062 22.6258C21.8134 22.5187 22.0157 22.4025 22.2126 22.2775C22.2126 22.2775 22.2796 22.2321 22.4105 22.135C22.6243 21.9767 22.7557 21.8643 22.933 21.679C23.066 21.5418 23.1769 21.3824 23.2655 21.2008C23.389 20.9428 23.5125 20.4503 23.5632 20.0403C23.6012 19.7267 23.5901 19.5558 23.5854 19.4497C23.579 19.2803 23.4381 19.1045 23.2845 19.0301L22.363 18.6168C22.363 18.6168 20.9855 18.0168 20.1432 17.6336C20.055 17.5952 19.9606 17.5732 19.8645 17.5687C19.7562 17.5573 19.6467 17.5694 19.5434 17.6041C19.4401 17.6388 19.3455 17.6953 19.266 17.7698C19.2581 17.7666 19.152 17.8568 18.0073 19.2438C17.9416 19.3321 17.8511 19.3988 17.7473 19.4355C17.6435 19.4722 17.5312 19.4771 17.4246 19.4497C17.3214 19.4222 17.2203 19.3872 17.1222 19.3452C16.9259 19.2628 16.8578 19.2312 16.7232 19.1742C15.8142 18.7782 14.9727 18.2423 14.2294 17.5861C14.0299 17.4119 13.8447 17.2219 13.6547 17.0382C13.0318 16.4417 12.489 15.7668 12.0397 15.0306L11.9463 14.8802C11.8802 14.7785 11.826 14.6696 11.7848 14.5556C11.7246 14.3228 11.8814 14.136 11.8814 14.136C11.8814 14.136 12.2661 13.7148 12.445 13.4868C12.6192 13.2652 12.7664 13.0498 12.8614 12.8963C13.0483 12.5954 13.1069 12.2867 13.0087 12.0476C12.5654 10.9646 12.1072 9.88739 11.6344 8.816C11.5409 8.60383 11.2639 8.45183 11.0121 8.42175C10.9266 8.41119 10.8411 8.40275 10.7556 8.39642C10.543 8.38422 10.3298 8.38634 10.1175 8.40275L10.4374 8.39167Z" fill="#004B62"/>
</svg>
